<svg xmlns="http://www.w3.org/2000/svg" viewBox="0 0 16 16" shape-rendering="crispEdges"><rect x="5" y="3" width="6" height="1" fill="#2b1b47"/><rect x="3" y="4" width="2" height="1" fill="#2b1b47"/><rect x="5" y="4" width="6" height="1" fill="#ffffff"/><rect x="11" y="4" width="2" height="1" fill="#2b1b47"/><rect x="2" y="5" width="1" height="1" fill="#2b1b47"/><rect x="3" y="5" width="4" height="1" fill="#ffffff"/><rect x="7" y="5" width="2" height="1" fill="#2b1b47"/><rect x="9" y="5" width="4" height="1" fill="#ffffff"/><rect x="13" y="5" width="1" height="1" fill="#2b1b47"/><rect x="1" y="6" width="1" height="1" fill="#2b1b47"/><rect x="2" y="6" width="4" height="1" fill="#ffffff"/><rect x="6" y="6" width="1" height="1" fill="#2b1b47"/><rect x="7" y="6" width="2" height="1" fill="#8861d8"/><rect x="9" y="6" width="1" height="1" fill="#2b1b47"/><rect x="10" y="6" width="4" height="1" fill="#ffffff"/><rect x="14" y="6" width="1" height="1" fill="#2b1b47"/><rect x="0" y="7" width="1" height="1" fill="#2b1b47"/><rect x="1" y="7" width="4" height="1" fill="#ffffff"/><rect x="5" y="7" width="1" height="1" fill="#2b1b47"/><rect x="6" y="7" width="1" height="1" fill="#8861d8"/><rect x="7" y="7" width="2" height="1" fill="#2b1b47"/><rect x="9" y="7" width="1" height="1" fill="#8861d8"/><rect x="10" y="7" width="1" height="1" fill="#2b1b47"/><rect x="11" y="7" width="4" height="1" fill="#ffffff"/><rect x="15" y="7" width="1" height="1" fill="#2b1b47"/><rect x="0" y="8" width="1" height="1" fill="#2b1b47"/><rect x="1" y="8" width="4" height="1" fill="#ffffff"/><rect x="5" y="8" width="1" height="1" fill="#2b1b47"/><rect x="6" y="8" width="1" height="1" fill="#8861d8"/><rect x="7" y="8" width="2" height="1" fill="#2b1b47"/><rect x="9" y="8" width="1" height="1" fill="#8861d8"/><rect x="10" y="8" width="1" height="1" fill="#2b1b47"/><rect x="11" y="8" width="4" height="1" fill="#ffffff"/><rect x="15" y="8" width="1" height="1" fill="#2b1b47"/><rect x="1" y="9" width="1" height="1" fill="#2b1b47"/><rect x="2" y="9" width="4" height="1" fill="#ffffff"/><rect x="6" y="9" width="1" height="1" fill="#2b1b47"/><rect x="7" y="9" width="2" height="1" fill="#8861d8"/><rect x="9" y="9" width="1" height="1" fill="#2b1b47"/><rect x="10" y="9" width="4" height="1" fill="#ffffff"/><rect x="14" y="9" width="1" height="1" fill="#2b1b47"/><rect x="2" y="10" width="1" height="1" fill="#2b1b47"/><rect x="3" y="10" width="4" height="1" fill="#ffffff"/><rect x="7" y="10" width="2" height="1" fill="#2b1b47"/><rect x="9" y="10" width="4" height="1" fill="#ffffff"/><rect x="13" y="10" width="1" height="1" fill="#2b1b47"/><rect x="3" y="11" width="2" height="1" fill="#2b1b47"/><rect x="5" y="11" width="6" height="1" fill="#ffffff"/><rect x="11" y="11" width="2" height="1" fill="#2b1b47"/><rect x="5" y="12" width="6" height="1" fill="#2b1b47"/></svg>
