<svg xmlns="http://www.w3.org/2000/svg" viewBox="0 0 16 16" shape-rendering="crispEdges"><rect x="7" y="0" width="2" height="1" fill="#ff9d2e"/><rect x="6" y="1" width="4" height="1" fill="#ff9d2e"/><rect x="5" y="2" width="6" height="1" fill="#ff9d2e"/><rect x="7" y="3" width="2" height="1" fill="#ff9d2e"/><rect x="7" y="4" width="2" height="1" fill="#ff9d2e"/><rect x="6" y="7" width="4" height="1" fill="#2b1b47"/><rect x="5" y="8" width="1" height="1" fill="#2b1b47"/><rect x="6" y="8" width="4" height="1" fill="#ffd23f"/><rect x="10" y="8" width="1" height="1" fill="#2b1b47"/><rect x="4" y="9" width="1" height="1" fill="#2b1b47"/><rect x="5" y="9" width="1" height="1" fill="#ffd23f"/><rect x="6" y="9" width="2" height="1" fill="#fff6c9"/><rect x="8" y="9" width="3" height="1" fill="#ffd23f"/><rect x="11" y="9" width="1" height="1" fill="#2b1b47"/><rect x="3" y="10" width="1" height="1" fill="#2b1b47"/><rect x="4" y="10" width="8" height="1" fill="#ffd23f"/><rect x="12" y="10" width="1" height="1" fill="#2b1b47"/><rect x="3" y="11" width="1" height="1" fill="#2b1b47"/><rect x="4" y="11" width="8" height="1" fill="#ffd23f"/><rect x="12" y="11" width="1" height="1" fill="#2b1b47"/><rect x="0" y="12" width="16" height="1" fill="#8861d8"/><rect x="3" y="14" width="10" height="1" fill="#b3a4dc"/></svg>
